<?xml version="1.0" standalone="no"?>
<!DOCTYPE svg PUBLIC "-//W3C//DTD SVG 20010904//EN"
 "http://www.w3.org/TR/2001/REC-SVG-20010904/DTD/svg10.dtd">
<svg version="1.0" xmlns="http://www.w3.org/2000/svg"
 width="1024.000000pt" height="1024.000000pt" viewBox="0 0 1024.000000 1024.000000"
 preserveAspectRatio="xMidYMid meet">
<metadata>
Created by potrace 1.16, written by Peter Selinger 2001-2019
</metadata>
<g transform="translate(0.000000,1024.000000) scale(0.100000,-0.100000)"
fill="#00BFFF" stroke="none">
<path d="M3885 8148 c-4 -12 -63 -229 -305 -1123 -50 -187 -239 -882 -420
-1545 -180 -663 -372 -1367 -425 -1565 -257 -952 -199 -850 -480 -853 -137 -1
-252 1 -257 6 -4 4 -1 32 8 61 8 29 35 125 59 214 24 89 105 392 180 672 148
550 273 1011 281 1035 4 13 -58 15 -526 15 -531 0 -531 0 -536 -25 -16 -73
-739 -2757 -784 -2912 -11 -36 -20 -71 -20 -77 0 -8 365 -10 1317 -9 1317 3
1317 3 1365 183 68 253 124 462 245 905 58 212 138 507 178 655 67 250 204
753 505 1855 65 239 151 554 190 700 39 146 100 369 135 495 35 127 105 383
155 570 110 406 195 713 205 738 7 16 -22 17 -529 17 -420 0 -538 -3 -541 -12z"/>
<path d="M5357 7988 c-25 -95 -129 -477 -231 -848 -101 -371 -237 -866 -301
-1100 -63 -234 -142 -522 -175 -640 -32 -118 -226 -829 -431 -1580 -204 -751
-395 -1450 -424 -1555 -29 -104 -54 -197 -56 -205 -4 -13 60 -15 525 -15 530
0 530 0 578 180 135 501 394 1456 703 2590 347 1272 451 1660 545 2015 28 107
58 219 66 248 15 52 15 52 798 52 784 0 784 0 806 83 12 45 73 271 136 503 63
231 114 426 114 432 0 9 -304 12 -1303 12 -1304 0 -1304 0 -1350 -172z"/>
<path d="M8416 8148 c-2 -7 -38 -141 -79 -298 -94 -354 -197 -737 -428 -1590
-99 -366 -218 -807 -265 -980 -47 -173 -105 -387 -129 -475 -25 -88 -117 -428
-205 -755 -89 -327 -174 -642 -190 -700 -16 -58 -81 -298 -145 -535 -64 -236
-136 -504 -161 -594 -24 -90 -44 -166 -44 -170 0 -3 239 -6 532 -6 532 0 532
0 554 75 22 74 394 1437 664 2435 27 99 107 394 179 655 71 261 270 990 441
1620 171 630 322 1184 335 1232 14 48 25 89 25 92 0 3 -243 6 -540 6 -424 0
-541 -3 -544 -12z"/>
<path d="M7051 6610 c-525 -5 -525 -5 -533 -40 -21 -83 -183 -687 -219 -812
-21 -75 -39 -139 -39 -142 0 -3 239 -6 530 -6 416 0 531 3 534 13 2 6 25 91
51 187 87 325 207 765 212 781 3 9 1 18 -4 20 -4 2 -244 2 -532 -1z"/>
<path d="M6166 5248 c-2 -7 -31 -116 -64 -243 -164 -618 -712 -2642 -773
-2851 -16 -56 -29 -105 -29 -109 0 -4 237 -5 527 -3 528 4 528 4 591 239 34
129 103 383 152 564 49 182 150 557 225 835 195 721 348 1285 389 1432 20 69
36 131 36 137 0 17 -1049 15 -1054 -1z"/>
</g>
</svg>